<?xml version="1.0" encoding="UTF-8" standalone="no"?>
<!-- Created with Inkscape (http://www.inkscape.org/) -->

<svg
   xmlns:dc="http://purl.org/dc/elements/1.1/"
   xmlns:cc="http://creativecommons.org/ns#"
   xmlns:rdf="http://www.w3.org/1999/02/22-rdf-syntax-ns#"
   xmlns:svg="http://www.w3.org/2000/svg"
   xmlns="http://www.w3.org/2000/svg"
   xmlns:sodipodi="http://sodipodi.sourceforge.net/DTD/sodipodi-0.dtd"
   xmlns:inkscape="http://www.inkscape.org/namespaces/inkscape"
   width="210"
   height="45"
   viewBox="0 0 210 45"
   id="svg4136"
   version="1.1"
   inkscape:version="0.91 r13725"
   sodipodi:docname="logo.svg">
  <defs
     id="defs4138" />
  <sodipodi:namedview
     id="base"
     pagecolor="#ffffff"
     bordercolor="#666666"
     borderopacity="1.0"
     inkscape:pageopacity="0.0"
     inkscape:pageshadow="2"
     inkscape:zoom="2.8284271"
     inkscape:cx="132.58412"
     inkscape:cy="36.919614"
     inkscape:document-units="px"
     inkscape:current-layer="layer1"
     showgrid="false"
     units="px"
     inkscape:window-width="1366"
     inkscape:window-height="706"
     inkscape:window-x="-8"
     inkscape:window-y="-8"
     inkscape:window-maximized="1" />
  <metadata
     id="metadata4141">
    <rdf:RDF>
      <cc:Work
         rdf:about="">
        <dc:format>image/svg+xml</dc:format>
        <dc:type
           rdf:resource="http://purl.org/dc/dcmitype/StillImage" />
        <dc:title></dc:title>
      </cc:Work>
    </rdf:RDF>
  </metadata>
  <g
     inkscape:label="Layer 1"
     inkscape:groupmode="layer"
     id="layer1"
     transform="translate(0,-1007.3622)">
    <path
       style="fill:#ffffff;fill-opacity:1;fill-rule:evenodd;stroke:#be2d68;stroke-width:1.09028983;stroke-linecap:butt;stroke-linejoin:miter;stroke-miterlimit:4;stroke-dasharray:none;stroke-opacity:1"
       d="m 2.1822943,1027.8256 c 1.5883947,6.7313 19.3811567,16.5964 27.2223977,8.3626 7.318405,-7.6846 0.722104,-23.2476 -5.912558,-26.7354 -3.781122,-1.9879 -16.8150267,0.062 -16.3530152,5.6577 0.7474675,9.0494 -6.14145242,7.6948 -4.9568245,12.7151 z"
       id="path4711"
       inkscape:connector-curvature="0"
       sodipodi:nodetypes="sssss" />
    <path
       style="opacity:1;fill:#e571a0;fill-opacity:1;fill-rule:evenodd;stroke:#be2d68;stroke-width:1.09028983;stroke-linecap:round;stroke-linejoin:round;stroke-miterlimit:4;stroke-dasharray:none;stroke-dashoffset:0;stroke-opacity:1"
       id="path4715"
       sodipodi:type="arc"
       sodipodi:cx="17.615156"
       sodipodi:cy="1020.8055"
       sodipodi:rx="4.8369207"
       sodipodi:ry="4.5789518"
       sodipodi:start="4.1629419"
       sodipodi:end="4.1524001"
       sodipodi:open="true"
       d="m 15.08924,1016.9005 a 4.8369207,4.5789518 0 0 1 6.644236,1.5035 4.8369207,4.5789518 0 0 1 -1.570696,6.2938 4.8369207,4.5789518 0 0 1 -6.652515,-1.4703 4.8369207,4.5789518 0 0 1 1.535631,-6.3016" />
    <g
       id="g4706"
       style="stroke:#be2d68;stroke-width:1;stroke-miterlimit:4;stroke-dasharray:none;stroke-opacity:1"
       transform="matrix(0.74449627,0,0,0.74449627,0.0503508,257.596)">
      <g
         style="font-style:normal;font-weight:normal;font-size:40px;line-height:125%;font-family:Sans;letter-spacing:0px;word-spacing:0px;fill:#e571a0;fill-opacity:1;stroke:#be2d68;stroke-width:1;stroke-linecap:butt;stroke-linejoin:miter;stroke-miterlimit:4;stroke-dasharray:none;stroke-opacity:1"
         id="text4136">
        <path
           d="m 59.077811,1016.9222 -5.44,25.44 5.76,0 3.28,-15.32 c 0.72,-0.08 1.48,-0.12 2,-0.12 2.64,0 3.64,2.32 3.64,4.92 0,3.4 -1.76,7.36 -3.96,7.36 -0.56,0 -1.92,-0.2 -2.68,-1.44 -0.36,1 -0.52,1.84 -0.52,2.52 0,2.52 2.32,2.76 4.72,2.76 4.4,0 7.96,-6.28 7.96,-11.44 0,-3.12 -1.32,-5.88 -4.6,-6.52 2.56,-1.48 4,-3.96 4,-6.32 0,-3.28 -2.8,-6.4 -9.08,-6.4 -6.68,0 -14.04,5.08 -14.04,10.4 0,2.88 1.52,3.88 4.28,3.88 -0.04,-0.36 -0.56,-0.68 -0.56,-2.72 0,-6.08 4.32,-9.72 10.8,-9.72 3.12,0 4.4,1.96 4.4,4.2 0,3.04 -2.36,6.6 -5.68,6.6 l -0.28,0 1.92,-8.88 -5.92,0.8 z"
           style="font-style:normal;font-variant:normal;font-weight:normal;font-stretch:normal;font-family:'Lobster 1.3';-inkscape-font-specification:'Lobster 1.3, ';fill:#e571a0;fill-opacity:1;stroke:#be2d68;stroke-width:1;stroke-miterlimit:4;stroke-dasharray:none;stroke-opacity:1"
           id="path4727"
           inkscape:connector-curvature="0" />
        <path
           d="m 78.228436,1022.3622 -4.24,20 5.76,0 3.32,-15.68 c 0.92,-0.84 1.56,-1.28 2.76,-1.28 1.2,0 0.08,2.64 2.32,2.64 1.96,0 3,-1.72 3,-3.12 0,-1.52 -1.08,-2.56 -2.88,-2.56 -1.68,0 -3.28,0.88 -4.72,2 l 0.44,-2 -5.76,0 z"
           style="font-style:normal;font-variant:normal;font-weight:normal;font-stretch:normal;font-family:'Lobster 1.3';-inkscape-font-specification:'Lobster 1.3, ';fill:#e571a0;fill-opacity:1;stroke:#be2d68;stroke-width:1;stroke-miterlimit:4;stroke-dasharray:none;stroke-opacity:1"
           id="path4729"
           inkscape:connector-curvature="0" />
        <path
           d="m 95.573436,1036.0422 c 0,-0.48 0.04,-1.08 0.12,-1.72 3.8,-0.48 9.040004,-3.28 9.040004,-8.16 0,-2.8 -1.84,-4.16 -5.120004,-4.16 -7.28,0 -9.44,8.92 -9.44,14 0,3.44 2.08,6.36 5.92,6.36 5.160004,0 9.000004,-4.04 11.280004,-8.16 l -1.8,0 c -1.4,2.96 -4.76,5.28 -6.720004,5.28 -1.56,0 -3.28,-0.8 -3.28,-3.44 z m 6.760004,-9.68 c -0.04,2.84 -2.640004,6 -6.320004,6.04 0.84,-3.76 2.68,-8.28 4.920004,-8.28 1.2,0 1.4,1.4 1.4,2.24 z"
           style="font-style:normal;font-variant:normal;font-weight:normal;font-stretch:normal;font-family:'Lobster 1.3';-inkscape-font-specification:'Lobster 1.3, ';fill:#e571a0;fill-opacity:1;stroke:#be2d68;stroke-width:1;stroke-miterlimit:4;stroke-dasharray:none;stroke-opacity:1"
           id="path4731"
           inkscape:connector-curvature="0" />
        <path
           d="m 118.18281,1022.3622 -0.24,1.04 c -0.72,-0.6 -1.72,-1 -2.68,-1 -8,0 -10.48,8.24 -10.48,15.12 0,2.36 1.12,5.08 4.96,5.08 2.44,0 4.24,-1.64 5.44,-3.28 0.52,2.08 2.28,3.04 4.88,3.04 3.12,0 7.64,-5.32 9.48,-7.16 l -1.36,0 c -1.6,1.28 -3.68,3.52 -5.28,3.52 -1.6,0 -2,-0.64 -2,-1.52 0,-0.36 0.08,-0.8 0.16,-1.24 l 2.88,-13.6 -5.76,0 z m -2.6,2.28 c 0.56,0 1.32,0.16 1.96,0.72 l -2.24,10.6 c -0.12,0.48 -0.2,0.92 -0.24,1.32 -0.76,1.12 -1.64,2 -2.56,2 -1,0 -2.32,-0.44 -2.32,-2.84 0,-5.44 2.4,-11.8 5.4,-11.8 z"
           style="font-style:normal;font-variant:normal;font-weight:normal;font-stretch:normal;font-family:'Lobster 1.3';-inkscape-font-specification:'Lobster 1.3, ';fill:#e571a0;fill-opacity:1;stroke:#be2d68;stroke-width:1;stroke-miterlimit:4;stroke-dasharray:none;stroke-opacity:1"
           id="path4733"
           inkscape:connector-curvature="0" />
        <path
           d="m 140.45906,1022.3622 c 0,-0.04 -4.72,3.6 -7.72,6 l 3,-14 -5.92,0.8 -5.8,27.2 5.76,0 2.28,-10.76 c 0.84,-0.56 1.56,-0.88 2.56,-0.88 1.08,0 1.84,0.92 1.84,2.36 0,0.32 -0.04,0.68 -0.12,1.04 l -0.44,1.84 c -0.2,0.76 -0.28,1.48 -0.28,2.12 0,2.92 1.92,4.28 5,4.28 3.12,0 6.96,-5.32 8.8,-7.16 l -1.36,0 c -1.6,1.28 -3,3.52 -4.6,3.52 -1.56,0 -2,-0.6 -2,-1.48 0,-0.4 0.08,-0.84 0.2,-1.28 l 0.56,-2.28 c 0.08,-0.32 0.12,-0.68 0.12,-1 0,-2.64 -2.48,-4.96 -4.64,-4.96 -0.36,0 -0.68,0.04 -1.04,0.12 l 8.12,-5.48 -4.32,0 z"
           style="font-style:normal;font-variant:normal;font-weight:normal;font-stretch:normal;font-family:'Lobster 1.3';-inkscape-font-specification:'Lobster 1.3, ';fill:#e571a0;fill-opacity:1;stroke:#be2d68;stroke-width:1;stroke-miterlimit:4;stroke-dasharray:none;stroke-opacity:1"
           id="path4735"
           inkscape:connector-curvature="0" />
        <path
           d="m 160.71031,1018.3622 c 0.08,-0.48 0.12,-1 0.12,-1.64 0,-2.6 -2.28,-4.32 -4.72,-4.32 -2.64,0 -6.08,1.08 -7.28,6.8 l -4.84,22.84 c -3.8,1.16 -6.88,2.32 -6.88,6 0,2.6 2.28,4.32 4.72,4.32 2.6,0 5.92,-1.08 7.16,-6.8 l 4.6,-21.6 2.96,0 0.28,-1.6 -2.92,0 0.68,-3.16 c 0.56,-2.68 1.92,-3.28 2.8,-3.28 0.8,0 1.52,0.44 1.52,1.36 0,0.36 -0.04,0.68 -0.08,1.08 l 1.88,0 z m -21.4,29.12 c 0,-2.16 1.88,-3.28 4.4,-4.12 l -0.52,2.32 c -0.52,2.36 -1.44,3.12 -2.28,3.12 -0.88,0 -1.6,-0.76 -1.6,-1.32 z"
           style="font-style:normal;font-variant:normal;font-weight:normal;font-stretch:normal;font-family:'Lobster 1.3';-inkscape-font-specification:'Lobster 1.3, ';fill:#e571a0;fill-opacity:1;stroke:#be2d68;stroke-width:1;stroke-miterlimit:4;stroke-dasharray:none;stroke-opacity:1"
           id="path4737"
           inkscape:connector-curvature="0" />
        <path
           d="m 168.72969,1022.3622 -0.24,1.04 c -0.72,-0.6 -1.72,-1 -2.68,-1 -8,0 -10.48,8.24 -10.48,15.12 0,2.36 1.12,5.08 4.96,5.08 2.48,0 4.28,-1.68 5.48,-3.36 0.48,1.92 2,3.12 4.8,3.12 1.16,0 2.6,-1.32 4.04,-3.16 0.72,2.32 2.88,3.16 6.56,3.16 3.72,0 6,-1.52 7.04,-3.72 1.6,-1.36 3.2,-2.76 4.32,-3.64 l -1.04,-1.36 c -0.48,0.56 -1.48,1.6 -2.6,2.6 l 0.04,-0.84 c -0.04,-4.68 -2.72,-6.68 -2.72,-13.28 l 0,-0.56 -5.8,1.2 c -0.68,3.04 -1.6,6.6 -3.04,9.2 -1.6,0.12 -3.04,1.96 -3.04,5.28 -0.64,0.92 -1.24,1.48 -1.68,1.48 -0.92,0 -1.24,-0.44 -1.24,-1.28 0,-0.4 0.08,-0.88 0.2,-1.48 l 2.84,-13.6 -5.72,0 z m -2.88,13.6 c -0.12,0.44 -0.2,0.88 -0.2,1.28 -0.8,1.12 -1.68,2.04 -2.6,2.04 -1,0 -2.32,-0.44 -2.32,-2.84 0,-5.44 2.4,-11.8 5.4,-11.8 0.56,0 1.32,0.16 1.96,0.72 l -2.24,10.6 z m 14.6,-1.56 c 0,-1.2 -0.36,-1.92 -1.32,-2.24 0.88,-2 1.44,-4.56 2.08,-6.52 0.08,5 1.88,7.12 1.88,9.6 0,3.08 -1.96,4.76 -3.32,4.76 -1.56,0 -3.44,-1 -3.44,-2.72 0,-0.2 0.04,-0.44 0.08,-0.64 0.48,0.2 0.92,0.32 1.4,0.32 1.4,0 2.64,-1.04 2.64,-2.56 z"
           style="font-style:normal;font-variant:normal;font-weight:normal;font-stretch:normal;font-family:'Lobster 1.3';-inkscape-font-specification:'Lobster 1.3, ';fill:#e571a0;fill-opacity:1;stroke:#be2d68;stroke-width:1;stroke-miterlimit:4;stroke-dasharray:none;stroke-opacity:1"
           id="path4739"
           inkscape:connector-curvature="0" />
        <path
           d="m 198.67031,1023.9622 2.4,0 0.32,-1.6 -2.4,0 c 0.76,-3.6 1.36,-6.32 1.36,-6.32 l -5.92,0.8 -1.2,5.52 -1.32,0 -0.32,1.6 1.32,0 -2.56,12 c -0.16,0.72 -0.24,1.44 -0.24,2.08 0,2.48 1.2,4.32 4,4.32 1.36,0 3.12,-0.24 4.24,-3.68 -0.32,0.12 -0.76,0.12 -1.04,0.12 -1.08,0 -1.4,-0.6 -1.4,-1.44 0,-0.44 0.08,-0.92 0.2,-1.4 l 2.56,-12 z"
           style="font-style:normal;font-variant:normal;font-weight:normal;font-stretch:normal;font-family:'Lobster 1.3';-inkscape-font-specification:'Lobster 1.3, ';fill:#e571a0;fill-opacity:1;stroke:#be2d68;stroke-width:1;stroke-miterlimit:4;stroke-dasharray:none;stroke-opacity:1"
           id="path4741"
           inkscape:connector-curvature="0" />
        <path
           d="m 219.54656,1016.9222 -5.44,25.44 5.76,0 3.2,-15.08 c 0.48,-0.12 0.92,-0.16 1.28,-0.16 1.8,0 2.4,1.12 2.4,2.72 0,3.04 -2.08,7.88 -2.08,10.52 0,1.32 0.52,2.68 3.12,2.68 0.96,0 2.28,-0.2 3.96,-0.68 -0.96,-0.36 -1.56,-1.44 -1.56,-2.64 0,-2.48 1.96,-6.84 1.96,-10.12 0,-1.88 -0.68,-3.4 -2.76,-4 2.76,-1.6 4.32,-4.4 4.32,-6.84 0,-3.28 -2.76,-6.4 -9.08,-6.4 -6.68,0 -14.04,5.08 -14.04,10.4 0,2.88 1.52,3.88 4.28,3.88 -0.04,-0.36 -0.56,-0.68 -0.56,-2.72 0,-6.08 4.32,-9.72 10.8,-9.72 3.12,0 4.4,1.96 4.4,4.2 0,3.12 -2.36,7 -5.68,7 l -0.36,0 2,-9.28 -5.92,0.8 z"
           style="font-style:normal;font-variant:normal;font-weight:normal;font-stretch:normal;font-family:'Lobster 1.3';-inkscape-font-specification:'Lobster 1.3, ';fill:#e571a0;fill-opacity:1;stroke:#be2d68;stroke-width:1;stroke-miterlimit:4;stroke-dasharray:none;stroke-opacity:1"
           id="path4743"
           inkscape:connector-curvature="0" />
        <path
           d="m 247.08906,1022.3622 -0.24,1.04 c -0.72,-0.6 -1.72,-1 -2.68,-1 -8,0 -10.48,8.24 -10.48,15.12 0,2.36 1.12,5.08 4.96,5.08 2.44,0 4.24,-1.64 5.44,-3.28 0.52,2.08 2.28,3.04 4.88,3.04 3.12,0 7.64,-5.32 9.48,-7.16 l -1.36,0 c -1.6,1.28 -3.68,3.52 -5.28,3.52 -1.6,0 -2,-0.64 -2,-1.52 0,-0.36 0.08,-0.8 0.16,-1.24 l 2.88,-13.6 -5.76,0 z m -2.6,2.28 c 0.56,0 1.32,0.16 1.96,0.72 l -2.24,10.6 c -0.12,0.48 -0.2,0.92 -0.24,1.32 -0.76,1.12 -1.64,2 -2.56,2 -1,0 -2.32,-0.44 -2.32,-2.84 0,-5.44 2.4,-11.8 5.4,-11.8 z"
           style="font-style:normal;font-variant:normal;font-weight:normal;font-stretch:normal;font-family:'Lobster 1.3';-inkscape-font-specification:'Lobster 1.3, ';fill:#e571a0;fill-opacity:1;stroke:#be2d68;stroke-width:1;stroke-miterlimit:4;stroke-dasharray:none;stroke-opacity:1"
           id="path4745"
           inkscape:connector-curvature="0" />
        <path
           d="m 258.88344,1016.8422 -1.2,5.52 -1.32,0 -0.32,1.6 1.32,0 c -0.68,3.44 -2.76,11.92 -2.76,14.04 0,3 1.88,4.36 4.96,4.36 3.12,0 7.64,-5.32 9.48,-7.16 l -1.36,0 c -1.6,1.28 -3.68,3.52 -5.28,3.52 -1.6,0 -2,-0.6 -2,-1.52 0,-0.2 -0.04,-0.6 2.72,-13.24 l 2.4,0 0.32,-1.6 -2.4,0 c 0.76,-3.6 1.36,-6.32 1.36,-6.32 l -5.92,0.8 z"
           style="font-style:normal;font-variant:normal;font-weight:normal;font-stretch:normal;font-family:'Lobster 1.3';-inkscape-font-specification:'Lobster 1.3, ';fill:#e571a0;fill-opacity:1;stroke:#be2d68;stroke-width:1;stroke-miterlimit:4;stroke-dasharray:none;stroke-opacity:1"
           id="path4747"
           inkscape:connector-curvature="0" />
        <path
           d="m 271.24219,1042.3622 c 4,0 7.48,-1.12 7.48,-5.44 -1.64,1.48 -3.24,2.56 -5.12,2.56 -1.56,0 -2.88,-0.8 -2.88,-3.44 0,-0.48 0.04,-1.08 0.12,-1.72 3.8,-0.48 9.04,-3.28 9.04,-8.16 0,-2.8 -1.84,-4.16 -5.12,-4.16 -7.28,0 -9.44,8.92 -9.44,14 0,3.44 2.08,6.36 5.92,6.36 z m 6.24,-16 c -0.04,2.84 -2.64,6 -6.32,6.04 0.84,-3.76 2.68,-8.28 4.92,-8.28 1.2,0 1.4,1.4 1.4,2.24 z"
           style="font-style:normal;font-variant:normal;font-weight:normal;font-stretch:normal;font-family:'Lobster 1.3';-inkscape-font-specification:'Lobster 1.3, ';fill:#e571a0;fill-opacity:1;stroke:#be2d68;stroke-width:1;stroke-miterlimit:4;stroke-dasharray:none;stroke-opacity:1"
           id="path4749"
           inkscape:connector-curvature="0" />
      </g>
    </g>
  </g>
</svg>
